<?xml version="1.0" encoding="UTF-8"?>
<svg id="Layer_2" data-name="Layer 2" xmlns="http://www.w3.org/2000/svg" xmlns:xlink="http://www.w3.org/1999/xlink" viewBox="0 0 2782.41 455.86">
  <defs>
    <style>
      .cls-1 {
        fill: #0b6131;
      }

      .cls-2 {
        fill: url(#linear-gradient);
      }
    </style>
    <linearGradient id="linear-gradient" x1="1926.52" y1="390.31" x2="2247.41" y2="67.08" gradientUnits="userSpaceOnUse">
      <stop offset="0" stop-color="#178848"/>
      <stop offset="1" stop-color="#17a65f"/>
    </linearGradient>
  </defs>
  <g id="Layer_1-2" data-name="Layer 1">
    <g>
      <path class="cls-1" d="M0,385.35V70.74h68.17v123.23h61.61l103.12-123.23h70.79v23.6l-112.3,133.71,112.3,133.71v23.6h-70.79l-103.12-123.23h-61.61v123.23H0Z"/>
      <path class="cls-1" d="M348.7,385.35V70.74h290.58v68.17h-221.98v55.06h178.72v68.17h-178.72v55.06h221.98v68.17h-290.58Z"/>
      <path class="cls-1" d="M964.6,273.05c9.76-5.82,17.62-13.69,23.6-23.6,5.97-9.9,8.96-20.68,8.96-32.34v-81.28c0-11.65-2.99-22.43-8.96-32.34-5.97-9.9-13.84-17.77-23.6-23.6-9.76-5.82-20.61-8.74-32.55-8.74h-249.51v314.18h67.73v-103.12l89.79-.22,86.74,103.34h69.92v-23.16l-68.09-80.39h3.42c11.94,0,22.79-2.92,32.55-8.75ZM750.27,138.9h178.28v74.72h-178.28v-74.72Z"/>
      <path class="cls-1" d="M1032.11,385.35V70.74h66.86v314.62h-66.86Z"/>
      <path class="cls-1" d="M1200.34,385.35c-11.66,0-22.44-2.91-32.34-8.74-9.91-5.82-17.77-13.69-23.6-23.6-5.83-9.9-8.74-20.68-8.74-32.34v-29.28h67.73v25.78h178.28v-55.06h-181.34c-11.66,0-22.44-2.91-32.34-8.74-9.91-5.82-17.77-13.61-23.6-23.38-5.83-9.76-8.74-20.61-8.74-32.55v-62.05c0-11.94,2.91-22.79,8.74-32.55,5.82-9.76,13.69-17.55,23.6-23.38,9.9-5.82,20.68-8.74,32.34-8.74h185.27c11.65,0,22.35,2.92,32.12,8.74,9.76,5.83,17.62,13.62,23.6,23.38,5.97,9.76,8.96,20.61,8.96,32.55v29.28h-68.6v-25.78h-178.28v55.06h182.22c11.65,0,22.35,2.92,32.12,8.74,9.76,5.83,17.62,13.62,23.6,23.38,5.97,9.76,8.96,20.61,8.96,32.55v62.05c0,11.65-2.99,22.44-8.96,32.34-5.97,9.91-13.84,17.77-23.6,23.6-9.76,5.83-20.47,8.74-32.12,8.74h-185.27Z"/>
      <path class="cls-1" d="M1563.02,385.35c-11.95,0-22.8-2.91-32.55-8.74-9.76-5.82-17.55-13.61-23.38-23.38-5.83-9.76-8.74-20.61-8.74-32.55v-185.27c0-11.94,2.91-22.79,8.74-32.55,5.82-9.76,13.61-17.55,23.38-23.38,9.76-5.82,20.61-8.74,32.55-8.74h249.07v68.17h-231.59c-4.66,0-8.23,1.17-10.71,3.5-2.48,2.33-3.71,5.97-3.71,10.92v149.44c0,4.66,1.24,8.23,3.71,10.71,2.47,2.48,6.04,3.71,10.71,3.71h231.59v68.17h-249.07Z"/>
      <path class="cls-1" d="M2363.36,385.35V70.74h66.86v314.62h-66.86Z"/>
      <path class="cls-1" d="M2467.79,385.35V70.74h69.92l176.1,209.74V70.74h68.6v314.62h-69.92l-176.97-210.62v210.62h-67.73Z"/>
      <path class="cls-2" d="M2315.66,227.93c0,125.88-102.05,227.93-227.94,227.93-57.79,0-110.56-21.51-150.74-56.96l28.95-14c.06-.03.11-.06.16-.09,35.8-26.45,92.86,7.29,106.13-5.23,13.29-12.54,18.89-.97,20.18,3.38,1.18,3.95,3.97,2.01,4.45,1.63.06-.04.11-.07.17-.1,11.53-6.12,20.94,1.57,23.44,3.93.37.36.94.39,1.36.09,5.09-3.68,8.58,1.8,9.57,3.67.19.36.59.57,1,.57,8.5-.08,12.5,6.79,13.82,9.72.28.63,1.05.83,1.61.43,3.05-2.17,6.72-2.79,9.31-2.92,1.01-.05,1.4-1.32.61-1.95-29.26-22.8-54.64-54.39-75.16-85.52-.35-.53-.18-1.24.37-1.55l9.54-5.53c.39-.23.88-.19,1.23.09,5.29,4.26,10.59,8.51,15.87,12.79.14.09.29.2.45.21.18,0,.34-.15.48-.29,2.55-2.53,5.1-5.05,7.66-7.58,10.62-10.51,21.23-21,31.84-31.51l19.5-19.29c.07-.07.16-.15.24-.22,40.34-34.85,43.92-78.74,43.92-78.74l3.28-94.67c.16-4.47-5.14-6.93-8.45-3.91l-2.33,2.13c-1.73,1.58-4.34,1.75-6.27.42-37.29-25.92-65.44,6.08-72.47,15.36-1.08,1.43-1.32,3.32-.64,4.97l27.01,65.4c.55,1.34.5,2.87-.14,4.17-2.04,4.12-4.1,8.25-6.13,12.38-3.45,6.95-6.89,13.9-10.34,20.85-1.52,3.07-3.04,6.15-4.58,9.22-1.59,3.21-2.44,6.83-5.45,9.1-1.99,1.51-4.46,2.05-6.82,2.76-2.43.74-4.57,1.98-6.94,2.87-3.98,1.48-7.96,2.95-11.94,4.45-4,1.49-8.02,2.98-12.02,4.47-1.73.65-3.47,1.29-5.19,1.94-1.12.42-4.38,2.33-5.49,2.06-.34.13-.68.26-1.04.23-.32-.03-1.18-.53-2.19-1.25-2.9-2.06-6.99-.61-7.85,2.85-.18.74-.33,1.47-.47,2.2-1.23,6.37-1.27,12.99-.82,19.49.04.43-.2.85-.59,1.04l-6.16,3.1c-.53.26-1.17.06-1.46-.45-18.97-34.27-30.54-62.2-33.1-68.54-.27-.67-1.12-.9-1.68-.44-9.53,7.84-14.5,18.27-15.52,20.57-.13.3-.39.51-.69.6-6.02,1.87-3.52,6.95-2.69,8.36.15.25.19.54.12.82-5.18,21.82-11.51,18.73-13.54,17-.41-.34-1-.33-1.4,0-1.05.89-2.95,2.18-3.75.75-1.14-2.02-1.62-10.4,3.24-13.68,1.34-.9,2.4-1.25,3.25-1.25,2.22,0,2.96,2.37,3.42,3.14.45.73,1.53.65,1.87-.15,5.02-11.63-4.69-11.21-4.69-11.21-15.84.78-25.57,24.19-27.6,29.55-.22.59-.89.87-1.61.53l-.85-.39c-.7-.31-1.5.18-1.54.94-.53,11.09-5.33,16.96-7.55,19.1-.53.51-1.39.37-1.73-.29l-.71-1.38c-.45-.88-1.73-.75-2.01.19-8,27.17-41.06,45.95-64.31,56.08-16.17-31.3-25.3-66.82-25.3-104.48,0-125.88,102.05-227.93,227.93-227.93s227.94,102.05,227.94,227.93Z"/>
    </g>
  </g>
</svg>