<svg xmlns="http://www.w3.org/2000/svg" id="Layer_2" data-name="Layer 2" viewBox="0 0 324 324">
  <defs fill="#11162e">
    <style>
      .cls-1 {
        fill: #0b6131;
      }

      .cls-2, .cls-3 {
        fill: #17a65f;
      }

      .cls-4 {
        fill: #dfe5e4;
        opacity: .22;
      }

      .cls-3 {
        stroke: #0b6131;
        stroke-miterlimit: 10;
        stroke-width: 4px;
      }
    </style>
  </defs>
  <g id="Layer_1-2" data-name="Layer 1">
    <ellipse class="cls-1" cx="162" cy="166.5" rx="162" ry="157.5" fill="#11162e"/>
    <path class="cls-2" d="M324,157.5c0,1.48-.02,2.96-.07,4.42v.08c-2.45,84.9-74.01,153-161.93,153S2.52,246.9.07,162v-.08c-.05-1.46-.07-2.94-.07-4.42,0-26.93,6.95-52.29,19.22-74.46C45.31,35.84,95.43,3.08,153.66.2c1.06-.05,2.13-.09,3.21-.12.53-.02,1.06-.03,1.59-.04.36-.01.72-.02,1.09-.02.82,0,1.63-.02,2.45-.02s1.63.01,2.45.02c.37,0,.73.01,1.09.02.53.01,1.06.02,1.59.04,1.08.03,2.15.07,3.21.12,58.23,2.88,108.35,35.64,134.44,82.84,12.27,22.17,19.22,47.53,19.22,74.46Z" fill="#11162e"/>
    <path class="cls-4" d="M304.78,83.04c-.87,1.46-1.77,2.9-2.69,4.32-29.04,44.8-80.92,74.64-140.09,74.64S50.95,132.16,21.91,87.36c-.92-1.42-1.82-2.86-2.69-4.32C45.31,35.84,95.43,3.08,153.66.2c1.06-.05,2.13-.09,3.21-.12.53-.02,1.06-.03,1.59-.04.36-.01.72-.02,1.09-.02.82,0,1.63-.02,2.45-.02s1.63.01,2.45.02c.37,0,.73.01,1.09.02.53.01,1.06.02,1.59.04,1.08.03,2.15.07,3.21.12,58.23,2.88,108.35,35.64,134.44,82.84Z" fill="#11162e"/>
    <path class="cls-3" d="M162,295c-78.3,0-142-61.68-142-137.5S83.7,20,162,20s142,61.68,142,137.5-63.7,137.5-142,137.5Z" fill="#11162e"/>
    <path class="cls-1" d="M162,29c-77.82,0-141.42,59.26-143.91,133-.05-1.49-.09-2.99-.09-4.5C18,81.68,82.6,20,162,20s144,61.68,144,137.5c0,1.51-.03,3.01-.09,4.5-2.5-73.74-66.09-133-143.91-133Z" fill="#11162e"/>
  </g>
  <g id="Layer_2-2" data-name="Layer 2">
    <path class="cls-1" d="M253.41,162c0,50.49-40.93,91.41-91.42,91.41-23.18,0-44.34-8.63-60.46-22.84l11.61-5.62s.04-.02.06-.04c14.36-10.61,37.24,2.92,42.56-2.1,5.33-5.03,7.58-.39,8.09,1.35.47,1.58,1.59.81,1.78.65.02-.01.04-.03.07-.04,4.62-2.46,8.4.63,9.4,1.58.15.14.38.16.54.04,2.04-1.48,3.44.72,3.84,1.47.08.14.24.23.4.23,3.41-.03,5.01,2.72,5.54,3.9.11.25.42.33.65.17,1.22-.87,2.7-1.12,3.73-1.17.41-.02.56-.53.24-.78-11.73-9.14-21.92-21.81-30.14-34.3-.14-.21-.07-.5.15-.62l3.83-2.22c.16-.09.35-.08.49.04,2.12,1.71,4.25,3.41,6.36,5.13.06.04.11.08.18.09.07,0,.14-.06.19-.11,1.02-1.01,2.05-2.03,3.07-3.04,4.26-4.21,8.52-8.42,12.77-12.64l7.82-7.74s.06-.06.1-.09c16.18-13.98,17.61-31.58,17.61-31.58l1.32-37.97c.06-1.79-2.06-2.78-3.39-1.57l-.94.85c-.7.63-1.74.7-2.52.17-14.96-10.4-26.24,2.44-29.07,6.16-.43.57-.53,1.33-.26,1.99l10.83,26.23c.22.54.2,1.15-.06,1.67-.82,1.65-1.64,3.31-2.46,4.96-1.38,2.79-2.76,5.57-4.15,8.36-.61,1.23-1.22,2.47-1.83,3.7-.64,1.29-.98,2.74-2.19,3.65-.8.61-1.79.82-2.73,1.11-.97.3-1.83.8-2.78,1.15-1.59.59-3.19,1.18-4.79,1.78-1.61.6-3.21,1.19-4.82,1.79-.7.26-1.39.52-2.08.78-.45.17-1.76.94-2.2.82-.14.05-.27.1-.42.09-.13-.01-.47-.21-.88-.5-1.16-.82-2.8-.24-3.15,1.14-.07.3-.13.59-.19.88-.49,2.56-.51,5.21-.33,7.82.01.17-.08.34-.24.42l-2.47,1.24c-.21.1-.47.03-.58-.18-7.61-13.74-12.25-24.94-13.27-27.49-.11-.27-.45-.36-.67-.18-3.82,3.14-5.82,7.33-6.23,8.25-.05.12-.16.2-.28.24-2.42.75-1.41,2.79-1.08,3.35.06.1.08.22.05.33-2.08,8.75-4.62,7.51-5.43,6.82-.16-.14-.4-.13-.56,0-.42.36-1.18.87-1.51.3-.46-.81-.65-4.17,1.3-5.49.54-.36.96-.5,1.3-.5.89,0,1.19.95,1.37,1.26.18.29.61.26.75-.06,2.01-4.66-1.88-4.49-1.88-4.49-6.35.31-10.25,9.7-11.07,11.85-.09.24-.36.35-.65.21l-.34-.16c-.28-.13-.6.07-.62.38-.21,4.45-2.14,6.8-3.03,7.66-.21.2-.56.15-.7-.11l-.28-.55c-.18-.35-.7-.3-.81.08-3.21,10.9-16.47,18.43-25.79,22.49-6.48-12.55-10.15-26.8-10.15-41.9,0-50.49,40.93-91.41,91.41-91.41s91.42,40.93,91.42,91.41Z" fill="#11162e"/>
  </g>
</svg>